<svg width="60" height="60" viewBox="0 0 60 60" fill="none" xmlns="http://www.w3.org/2000/svg">
<path d="M28.75 5C25.1033 5 21.6059 6.44866 19.0273 9.02728C16.4487 11.6059 15 15.1033 15 18.75C15 22.3967 16.4487 25.8941 19.0273 28.4727C21.6059 31.0513 25.1033 32.5 28.75 32.5C32.3967 32.5 35.8941 31.0513 38.4727 28.4727C41.0513 25.8941 42.5 22.3967 42.5 18.75C42.5 15.1033 41.0513 11.6059 38.4727 9.02728C35.8941 6.44866 32.3967 5 28.75 5ZM32.5 44.375C32.5003 42.5286 32.9311 40.7076 33.7583 39.0569C34.5855 37.4061 35.7862 35.9709 37.2652 34.8654C38.7441 33.7599 40.4604 33.0145 42.2778 32.6884C44.0952 32.3624 45.9636 32.4646 47.7346 32.9869C49.5056 33.5093 51.1304 34.4375 52.4799 35.6977C53.8294 36.9579 54.8664 38.5155 55.5086 40.2466C56.1508 41.9778 56.3805 43.8349 56.1793 45.6703C55.9782 47.5057 55.3518 49.269 54.35 50.82L58.535 54.9975L55.0025 58.535L50.815 54.3525C49.0217 55.5101 46.9495 56.1629 44.8165 56.2422C42.6835 56.3216 40.5685 55.8245 38.6941 54.8034C36.8197 53.7823 35.2552 52.2749 34.1652 50.4397C33.0752 48.6045 32.4999 46.5095 32.5 44.375ZM44.375 37.5C42.5516 37.5 40.803 38.2243 39.5136 39.5136C38.2243 40.803 37.5 42.5516 37.5 44.375C37.5 46.1984 38.2243 47.947 39.5136 49.2364C40.803 50.5257 42.5516 51.25 44.375 51.25C46.1984 51.25 47.947 50.5257 49.2364 49.2364C50.5257 47.947 51.25 46.1984 51.25 44.375C51.25 42.5516 50.5257 40.803 49.2364 39.5136C47.947 38.2243 46.1984 37.5 44.375 37.5ZM31.875 35C29.8417 37.7021 28.7446 40.9933 28.75 44.375C28.75 48.4775 30.3325 52.2125 32.9175 55H5V50C5 46.0218 6.58035 42.2064 9.3934 39.3934C12.2064 36.5804 16.0218 35 20 35H31.875Z" fill="#FFC917"/>
</svg>
