<svg width="60" height="60" viewBox="0 0 60 60" fill="none" xmlns="http://www.w3.org/2000/svg">
<g clip-path="url(#clip0_247_5293)">
<path fill-rule="evenodd" clip-rule="evenodd" d="M26.65 0.4825C26.0825 0.7025 25.4375 1.15875 24.7288 1.975C23.6413 3.2275 22.5763 5.145 21.6438 7.665C20.65 10.3488 19.8488 13.605 19.3163 17.24H35.6825C35.15 13.605 34.3475 10.3488 33.355 7.665C32.4225 5.145 31.3575 3.2275 30.27 1.975C29.5613 1.15875 28.915 0.7025 28.3488 0.4825C27.7822 0.464981 27.2165 0.464981 26.65 0.4825ZM15.5275 17.24H2.48375C5.6625 9.5 12.3275 3.56125 20.525 1.3775C19.6175 2.80625 18.8175 4.49625 18.1263 6.36375C16.9825 9.45625 16.0913 13.16 15.5288 17.2388M1.2575 34.01H15.1125C14.9313 31.8447 14.8412 29.6728 14.8425 27.5C14.8425 25.275 14.9363 23.095 15.1138 20.99H1.2575C0.732286 23.1201 0.467435 25.3061 0.468755 27.5C0.468755 29.745 0.742505 31.925 1.2575 34.01ZM15.5263 37.76C15.8625 40.21 16.3175 42.5225 16.8738 44.6513V52.3637C10.351 49.5656 5.1849 44.3223 2.48375 37.7588L15.5263 37.76ZM36.8725 6.36375C36.1813 4.49625 35.38 2.80625 34.4725 1.37625C42.6725 3.56 49.3375 9.49875 52.515 17.2388H39.47C38.9075 13.16 38.0163 9.45625 36.8725 6.36375ZM53.7425 20.9888H39.885C40.0288 22.7 40.1175 24.4587 40.145 26.2512C41.4184 26.2664 42.6813 26.4841 43.8863 26.8962C45.7163 27.5212 48.6263 28.5763 52.6163 30.1962C53.2146 30.4396 53.7825 30.6729 54.32 30.8962C54.7354 27.5867 54.5397 24.2277 53.7425 20.9888ZM36.1213 20.99C36.2914 22.923 36.3853 24.8621 36.4025 26.8025L36.1125 26.8975C34.2813 27.5225 31.3713 28.5775 27.3825 30.1975C24.895 31.2088 22.9425 32.0512 21.4438 32.7275C20.7182 33.0538 20.0454 33.4865 19.4475 34.0112H18.8763C18.6858 31.8461 18.5911 29.6735 18.5925 27.5C18.5925 25.2588 18.6925 23.0788 18.8775 20.99H36.1213ZM37.3263 29.8213C39.0597 29.2273 40.9416 29.2273 42.675 29.8213C44.4375 30.4237 47.2813 31.4525 51.2063 33.0462C53.1578 33.8349 55.0944 34.6601 57.015 35.5212C58.4975 36.19 59.3775 37.5612 59.3775 39.05C59.3775 40.5387 58.4975 41.91 57.015 42.5788C55.0943 43.4395 53.1578 44.2642 51.2063 45.0525C47.2813 46.6475 44.4375 47.6763 42.675 48.2775C40.9412 48.8718 39.0588 48.8718 37.325 48.2775C35.5638 47.6763 32.72 46.6475 28.795 45.0525C27.3137 44.4524 25.8403 43.8332 24.375 43.195V54.125C24.375 54.6223 24.1775 55.0992 23.8258 55.4508C23.4742 55.8025 22.9973 56 22.5 56C22.0027 56 21.5258 55.8025 21.1742 55.4508C20.8225 55.0992 20.625 54.6223 20.625 54.125V39.1838L20.6225 39.0488C20.6225 37.56 21.5038 36.1888 22.985 35.52C24.9061 34.6588 26.8431 33.8337 28.795 33.045C32.72 31.4513 35.5638 30.4237 37.3263 29.8213ZM36.1138 51.825C34.3013 51.2062 31.43 50.1663 27.5 48.5725C27.5063 51.0025 27.6325 52.5975 27.7688 53.6225C27.8583 54.3351 28.1199 55.0152 28.5311 55.6041C28.9423 56.193 29.4906 56.6729 30.1288 57.0025C31.8338 57.8838 35.0363 59.0487 40 59.0487C44.9638 59.0487 48.165 57.8838 49.8713 57.0025C50.5093 56.6727 51.0575 56.1925 51.4685 55.6034C51.8794 55.0143 52.1408 54.334 52.23 53.6213C52.3675 52.5975 52.4925 51.0025 52.5 48.5738C48.57 50.1675 45.7 51.2062 43.8875 51.825C41.3625 52.6875 38.6375 52.6875 36.1125 51.825" fill="#FFC917"/>
</g>
<defs>
<clipPath id="clip0_247_5293">
<rect width="60" height="60" fill="white"/>
</clipPath>
</defs>
</svg>
