<svg width="60" height="60" viewBox="0 0 60 60" fill="none" xmlns="http://www.w3.org/2000/svg">
<path fill-rule="evenodd" clip-rule="evenodd" d="M23.9663 4.13C25.8975 3.455 28.1537 2.8125 30 2.8125C31.8463 2.8125 34.1025 3.455 36.0337 4.13C38.0462 4.835 40.0338 5.6975 41.4563 6.35125C43.5275 7.3025 45.0688 9.24375 45.3188 11.6537C45.4788 13.1788 45.625 15.4087 45.625 18.4375C45.625 21.4662 45.4788 23.695 45.32 25.2213C45.2867 25.5371 45.2325 25.8442 45.1575 26.1425C46.4925 26.385 47.895 26.8125 49.1575 27.255C51.1712 27.96 53.16 28.8225 54.5813 29.4762C56.6525 30.4275 58.1938 32.3687 58.4438 34.7787C58.6038 36.3037 58.75 38.5337 58.75 41.5625C58.75 44.5913 58.6038 46.82 58.445 48.3462C58.195 50.7562 56.6525 52.6962 54.5813 53.6488C53.16 54.3025 51.1712 55.165 49.1587 55.87C47.2275 56.545 44.9712 57.1875 43.125 57.1875C41.2788 57.1875 39.0225 56.5462 37.0913 55.87C35.0788 55.165 33.0912 54.3025 31.6687 53.6488C31.063 53.3711 30.5009 53.0069 30 52.5675C29.5025 53.005 28.94 53.37 28.3313 53.6488C26.91 54.3025 24.9212 55.165 22.9087 55.87C20.9775 56.545 18.7213 57.1875 16.875 57.1875C15.0288 57.1875 12.7725 56.5462 10.8413 55.87C8.82875 55.165 6.84125 54.3025 5.41875 53.6488C3.3475 52.6975 1.80625 50.7562 1.55625 48.3462C1.395 46.8212 1.25 44.5913 1.25 41.5625C1.25 38.5337 1.39625 36.305 1.555 34.7787C1.805 32.3687 3.3475 30.4287 5.41875 29.4762C6.84 28.8225 8.82875 27.96 10.8413 27.255C12.1038 26.8138 13.5075 26.3862 14.8438 26.1425C14.7666 25.8399 14.7123 25.532 14.6812 25.2213C14.5212 23.6963 14.375 21.4662 14.375 18.4375C14.375 15.4087 14.5213 13.18 14.68 11.6537C14.93 9.24375 16.4725 7.30375 18.5438 6.35125C19.965 5.6975 21.9538 4.835 23.9663 4.13ZM32.5 41.5625C32.5 44.43 32.6388 46.4875 32.7787 47.83C32.8312 48.3425 33.16 48.8312 33.7575 49.105C35.1075 49.7262 36.9375 50.5175 38.7438 51.15C39.4163 51.3862 40.0488 51.585 40.625 51.745V40.975C40.1375 40.8287 39.625 40.655 39.1025 40.465C37.5655 39.8924 36.048 39.2688 34.5525 38.595C33.8725 38.2925 33.2113 37.9912 32.595 37.705C32.5297 38.9898 32.498 40.2761 32.5 41.5625ZM45.625 40.9762V51.745C46.2012 51.585 46.8338 51.3862 47.5075 51.15C49.3125 50.5187 51.1425 49.7262 52.4925 49.1063C53.09 48.8312 53.4175 48.3425 53.4713 47.83C53.6113 46.4862 53.75 44.43 53.75 41.5625C53.75 40.0588 53.7125 38.7775 53.655 37.7063C53.0387 37.9925 52.3775 38.2938 51.6975 38.5963C50.2021 39.27 48.6845 39.8937 47.1475 40.4663C46.6262 40.6562 46.1125 40.83 45.625 40.9762ZM27.5 41.5625C27.5 40.0588 27.4625 38.7775 27.405 37.7063C26.7887 37.9925 26.1275 38.2938 25.4475 38.5963C23.952 39.27 22.4345 39.8937 20.8975 40.4663C20.3763 40.6562 19.8625 40.83 19.375 40.9762V51.745C19.9513 51.585 20.5837 51.3862 21.2562 51.15C23.0625 50.5187 24.8938 49.7262 26.2438 49.1063C26.84 48.8312 27.1688 48.3425 27.2213 47.83C27.3612 46.4862 27.5 44.43 27.5 41.5625ZM12.8525 40.4663C13.3737 40.6562 13.8875 40.83 14.375 40.9762V51.745C13.7416 51.5673 13.1141 51.3689 12.4937 51.15C10.6875 50.5187 8.85625 49.7262 7.50625 49.1063C6.91 48.8312 6.58125 48.3425 6.52875 47.83C6.3875 46.4862 6.25 44.43 6.25 41.5625C6.25 40.0588 6.2875 38.7775 6.345 37.7063C6.96125 37.9925 7.6225 38.2938 8.3025 38.5963C9.79795 39.27 11.3155 39.8937 12.8525 40.4663ZM19.47 14.5813C19.4047 15.8656 19.373 17.1515 19.375 18.4375C19.375 21.305 19.5138 23.3625 19.6537 24.705C19.7062 25.2175 20.035 25.7063 20.6325 25.98C21.9825 26.6012 23.8125 27.3925 25.6188 28.025C26.2913 28.2612 26.9237 28.46 27.5 28.62V17.85C27.0125 17.7037 26.5 17.53 25.9775 17.34C24.4405 16.7674 22.923 16.1438 21.4275 15.47C20.7475 15.1675 20.0863 14.8662 19.47 14.58M34.3825 28.0238C33.7075 28.26 33.0763 28.4587 32.5 28.6188V17.85C32.9875 17.7037 33.5 17.53 34.0225 17.34C35.5595 16.7674 37.077 16.1438 38.5725 15.47C39.2525 15.1675 39.9137 14.8662 40.53 14.58C40.5875 15.6512 40.625 16.9325 40.625 18.4362C40.625 21.3037 40.4863 23.3612 40.3463 24.7038C40.2938 25.2163 39.965 25.705 39.3675 25.9788C37.7369 26.7348 36.0731 27.4171 34.3812 28.0238" fill="#FFC917"/>
</svg>
